<?xml version="1.0" encoding="UTF-8" standalone="no"?>
<!-- Created with Inkscape (http://www.inkscape.org/) -->

<svg
   xmlns:dc="http://purl.org/dc/elements/1.1/"
   xmlns:cc="http://creativecommons.org/ns#"
   xmlns:rdf="http://www.w3.org/1999/02/22-rdf-syntax-ns#"
   xmlns:svg="http://www.w3.org/2000/svg"
   xmlns="http://www.w3.org/2000/svg"
   xmlns:sodipodi="http://sodipodi.sourceforge.net/DTD/sodipodi-0.dtd"
   xmlns:inkscape="http://www.inkscape.org/namespaces/inkscape"
   id="svg2"
   version="1.1"
   inkscape:version="0.91 r13725"
   xml:space="preserve"
   width="719.06573"
   height="810"
   viewBox="0 0 719.06575 810"
   sodipodi:docname="publicdomainq-business-man-guide.svg"
   inkscape:export-filename="/media/sdb1/_GRAFIKA/Publicdomainq/lidi/publicdomainq-business-man-guide.png"
   inkscape:export-xdpi="88.865311"
   inkscape:export-ydpi="88.865311"><title
     id="title7771">Business man - guide</title><metadata
     id="metadata8"><rdf:RDF><cc:Work
         rdf:about=""><dc:format>image/svg+xml</dc:format><dc:type
           rdf:resource="http://purl.org/dc/dcmitype/StillImage" /><dc:title>Business man - guide</dc:title><cc:license
           rdf:resource="http://creativecommons.org/publicdomain/zero/1.0/" /><dc:subject><rdf:Bag><rdf:li>man</rdf:li><rdf:li>male</rdf:li><rdf:li>guide</rdf:li><rdf:li>work</rdf:li><rdf:li>office</rdf:li><rdf:li>show</rdf:li><rdf:li>explain</rdf:li><rdf:li>suit</rdf:li><rdf:li>tie</rdf:li><rdf:li>publicdomainq.net</rdf:li></rdf:Bag></dc:subject><dc:description>This image was adapted from a picture posted to publicdomainq.net. All of the images on these sites are in the public domain i.e. CC0. This site is only in Japanese but can be easily navigated with Google Translate.</dc:description></cc:Work><cc:License
         rdf:about="http://creativecommons.org/publicdomain/zero/1.0/"><cc:permits
           rdf:resource="http://creativecommons.org/ns#Reproduction" /><cc:permits
           rdf:resource="http://creativecommons.org/ns#Distribution" /><cc:permits
           rdf:resource="http://creativecommons.org/ns#DerivativeWorks" /></cc:License></rdf:RDF></metadata><defs
     id="defs6" /><sodipodi:namedview
     pagecolor="#ffffff"
     bordercolor="#666666"
     borderopacity="1"
     objecttolerance="10"
     gridtolerance="10"
     guidetolerance="10"
     inkscape:pageopacity="0"
     inkscape:pageshadow="2"
     inkscape:window-width="1920"
     inkscape:window-height="1125"
     id="namedview4"
     showgrid="false"
     inkscape:zoom="0.59663522"
     inkscape:cx="114.68569"
     inkscape:cy="396.9229"
     inkscape:window-x="0"
     inkscape:window-y="0"
     inkscape:window-maximized="1"
     inkscape:current-layer="svg2"
     fit-margin-top="5"
     fit-margin-left="5"
     fit-margin-bottom="5"
     fit-margin-right="5" /><g
     id="g12"
     transform="matrix(0.40403275,0,0,-0.40403275,4.9990223,804.95425)"><path
       d="m 885.32,1366.53 c 0,0 -43.574,273.51 3.711,379.6 42.153,94.47 114.179,105.53 134.929,127.73 50.82,54.35 108.66,86.27 201.51,96.05 92.87,9.78 224.29,-17.91 266.33,-47.21 42.06,-29.31 52.58,-52.82 57.82,-88.19 0,0 41.18,-12.12 82.38,-88.38 23.21,-43.07 44.8,-88.07 -2.5,-383.86 l -28.27,-67.61 -670,-16.66 -45.91,88.53"
       style="fill:#af7b4e;fill-opacity:1;fill-rule:nonzero;stroke:none"
       id="path14"
       inkscape:connector-curvature="0" /><path
       d="m 889.031,1693.63 c 42.153,94.47 114.179,105.53 134.929,127.73 50.82,54.35 108.66,86.27 201.51,96.05 92.87,9.78 224.29,-17.91 266.33,-47.21 42.06,-29.31 52.58,-52.82 57.82,-88.19 0,0 41.18,-12.12 82.38,-88.38 11.42,-21.18 22.42,-42.9 25.05,-94.64 3.64,91.79 -10.36,119.9 -25.05,147.14 -41.2,76.26 -82.38,88.38 -82.38,88.38 -5.24,35.37 -15.76,58.88 -57.82,88.19 -42.04,29.3 -173.46,56.99 -266.33,47.21 -92.85,-9.78 -150.69,-41.7 -201.51,-96.05 -20.75,-22.2 -92.776,-33.26 -134.929,-127.73 -19.195,-43.08 -23.418,-113.78 -21.66,-182.55 1.399,50.53 7.356,97.96 21.66,130.05"
       style="fill:#d5b185;fill-opacity:1;fill-rule:nonzero;stroke:none"
       id="path16"
       inkscape:connector-curvature="0" /><path
       d="m 831.223,619.672 c -44.172,-27.641 -212.5,-242.5 -212.5,-242.5 l -11.426,16.629 c -40.102,101.98 -87.754,245.699 -94.406,262.539 0,0 -14.161,15.832 -30.828,10.832 -45,-7.5 -105.833,-60.844 -105.833,-60.844 -13.332,-9.168 -20,-35.828 -15.007,-46.656 C 387.48,505.301 468.684,223.551 499.563,163 c 35.32,-69.2617 67.683,-79.7109 121.609,-47.801 93.641,55.403 261.719,211.129 261.719,211.129 l 6.765,-21.508 C 904.773,200.328 922.539,78.0313 932.938,8 l 796.622,0 c 0,0 60.23,532.949 -43.35,609.441 -77.49,57.231 -299.36,142.43 -358.52,169.098 l -154.38,-4.367 C 1109.98,753.012 906.289,679.73 831.223,619.672"
       style="fill:#b2e6fa;fill-opacity:1;fill-rule:nonzero;stroke:none"
       id="path18"
       inkscape:connector-curvature="0" /><path
       d="m 1746.94,325.5 c -153.63,-89.941 -340.61,-142.738 -542.38,-142.738 -106.05,0 -208.029,14.578 -303.232,41.476 C 913.191,142.461 925.137,60.5313 932.938,8 l 796.622,0 c 0,0 18.1,160.172 17.38,317.5"
       style="fill:#8dcaef;fill-opacity:1;fill-rule:nonzero;stroke:none"
       id="path20"
       inkscape:connector-curvature="0" /><path
       d="m 936.238,1343.83 c 0,0 -31.718,31.63 -68.125,19.78 -17.703,-5.78 -40.957,-28.7 -34.136,-68.86 6.836,-40.17 54.468,-148.42 120.878,-175.09"
       style="fill:#fcd7bb;fill-opacity:1;fill-rule:nonzero;stroke:none"
       id="path22"
       inkscape:connector-curvature="0" /><path
       d="m 1317.33,828.16 c 20.79,10.192 55.2,45.981 55.2,45.981 0,0 148.7,127.189 169.88,192.189 19.35,59.36 36.1,401.07 27.52,448.12 -12.73,70.01 -15.8,109.35 -58.26,141.63 -36.41,27.68 -25.47,78.14 -25.47,78.14 -214.97,-69.56 -384.64,-16.27 -384.64,-16.27 58.26,9.76 94.67,42.32 94.67,42.32 -109.24,-1.62 -168.33,-37.27 -199.753,-66.75 -20.188,-18.93 -45.247,-85.52 -60.098,-179.07 -7.5,-47.23 9.246,-388.43 27.527,-448.12 23.992,-78.33 170.224,-192.189 170.224,-192.189 0,0 34.61,-36.45 55.23,-45.981 24.65,-11.379 107.17,-10.191 127.97,0"
       style="fill:#fcd7bb;fill-opacity:1;fill-rule:nonzero;stroke:none"
       id="path24"
       inkscape:connector-curvature="0" /><path
       d="m 1570.4,1343 c 0,0 31.41,32.46 67.81,20.61 17.73,-5.78 40.96,-28.7 34.12,-68.86 -6.83,-40.17 -43.63,-158.42 -118.14,-175.09"
       style="fill:#fcd7bb;fill-opacity:1;fill-rule:nonzero;stroke:none"
       id="path26"
       inkscape:connector-curvature="0" /><path
       d="m 1023.6,1412.63 c 26.04,86.76 127.39,56.38 130.12,5.78 0,0 13.34,-58.75 -11.66,-93.75 -20.65,-28.91 -73.33,-31.66 -101.67,2.5 -17.78,21.45 -23.99,49.68 -16.79,85.47"
       style="fill:#ffffff;fill-opacity:1;fill-rule:nonzero;stroke:none"
       id="path28"
       inkscape:connector-curvature="0" /><path
       d="m 1349.44,1094.96 c -20.86,-9.23 -52.9,-19.03 -95,-19.03 -41.68,0 -73.47,9.62 -94.33,18.77 l -13.47,2.61 c 0,0 53.49,-176.47 106.78,-176.47 53.24,0 106.8,176.47 106.8,176.47 l -10.78,-2.35"
       style="fill:#ed5d84;fill-opacity:1;fill-rule:nonzero;stroke:none"
       id="path30"
       inkscape:connector-curvature="0" /><path
       d="m 1144.69,1374.55 c 0,-34.39 -15.94,-62.24 -35.63,-62.24 -19.67,0 -35.64,27.85 -35.64,62.24 0,34.38 15.97,62.25 35.64,62.25 19.69,0 35.63,-27.87 35.63,-62.25"
       style="fill:#3b489a;fill-opacity:1;fill-rule:nonzero;stroke:none"
       id="path32"
       inkscape:connector-curvature="0" /><path
       d="m 1464.57,1412.63 c -26.03,86.76 -127.38,56.38 -130.12,5.78 0,0 -13.34,-58.75 11.66,-93.75 20.66,-28.91 73.33,-31.66 101.67,2.5 17.79,21.45 24,49.68 16.79,85.47"
       style="fill:#ffffff;fill-opacity:1;fill-rule:nonzero;stroke:none"
       id="path34"
       inkscape:connector-curvature="0" /><path
       d="m 1334.35,1418.31 c 0,0.01 0.02,0.1 0.02,0.1 2.56,47.61 99.78,76.88 128.53,-2.5 -24.37,20.63 -72.5,45 -128.55,2.4"
       style="fill:#dceaf5;fill-opacity:1;fill-rule:nonzero;stroke:none"
       id="path36"
       inkscape:connector-curvature="0" /><path
       d="m 1143.46,1402.86 c 0,-8.59 -6.19,-15.56 -13.82,-15.56 -7.64,0 -13.83,6.97 -13.83,15.56 0,8.58 6.19,15.53 13.83,15.53 7.63,0 13.82,-6.95 13.82,-15.53"
       style="fill:#ffffff;fill-opacity:1;fill-rule:nonzero;stroke:none"
       id="path38"
       inkscape:connector-curvature="0" /><path
       d="m 1415.54,1374.55 c 0,-34.39 -15.94,-62.24 -35.63,-62.24 -19.67,0 -35.64,27.85 -35.64,62.24 0,34.38 15.97,62.25 35.64,62.25 19.69,0 35.63,-27.87 35.63,-62.25"
       style="fill:#3b489a;fill-opacity:1;fill-rule:nonzero;stroke:none"
       id="path40"
       inkscape:connector-curvature="0" /><path
       d="m 1414.31,1402.86 c 0,-8.59 -6.19,-15.56 -13.82,-15.56 -7.64,0 -13.83,6.97 -13.83,15.56 0,8.58 6.19,15.53 13.83,15.53 7.63,0 13.82,-6.95 13.82,-15.53"
       style="fill:#ffffff;fill-opacity:1;fill-rule:nonzero;stroke:none"
       id="path42"
       inkscape:connector-curvature="0" /><path
       d="m 1163.17,594.32 54.31,64.629 72.88,2.063 45.37,-58.434 c 0,0 -88.68,35.051 -172.56,-8.258"
       style="fill:#8dcaef;fill-opacity:1;fill-rule:nonzero;stroke:none"
       id="path44"
       inkscape:connector-curvature="0" /><path
       d="m 1168.39,8 70.72,578.371 -21.42,68.301 31.87,45 37.5,-43.75 -17.23,-70.383 66,-577.539 -167.44,0"
       style="fill:#3871c1;fill-opacity:1;fill-rule:nonzero;stroke:none"
       id="path46"
       inkscape:connector-curvature="0" /><path
       d="m 1319.56,827.172 c -1.93,-33.332 13.75,-60 13.75,-60 l 8.75,4.367 c 0,0 -58.78,-66.25 -90.79,-71.66 -32.51,0 -85.46,72.91 -85.46,72.91 l 5,-5.617 c 0,0 15.68,26.668 13.75,60"
       style="fill:#fcd7bb;fill-opacity:1;fill-rule:nonzero;stroke:none"
       id="path48"
       inkscape:connector-curvature="0" /><path
       d="m 411.379,558.219 c 10.699,3.691 24.473,10.812 41.512,23.953 21.093,16.25 31.992,32.047 37.589,43.348 l 2.411,10.808 c -10.828,17.5 -23.328,45 -25.828,55.844 l 2.507,13.387 c 15.039,55.75 -13.679,113.242 -23.41,126.101 -12.437,16.43 -38.211,57.988 -48.34,76.309 -10.132,18.32 -28.023,39.691 -38.882,37.492 -10.879,-2.211 -18.274,-15.012 -17.961,-48.57 0.109,-11.789 4.336,-23.09 9.765,-32.782 l -21.484,10.371 c -73.504,67.629 -162.371,114.661 -201.32,104.282 -16.637,-4.473 -16.161,-24.211 -16.161,-24.211 0,0 -25.8278,8.789 -42.6442,1.07 -17.1211,-7.84 -15.2461,-24.25 -15.2461,-24.25 0,0 -25.6914,6.867 -31.5937,-11.422 -4.2578,-13.187 15.8008,-30.039 15.8008,-30.039 0,0 -53.9844,-4.84 -17.3399,-28.621 55.625,-36.09 126.8831,-78.418 126.8831,-78.418 104.172,-96.641 166.386,-126.57 196.906,-135.73 L 355.391,643 c 15.839,-23.328 27.5,-48.328 42.5,-80 l 13.488,-4.781"
       style="fill:#fcd7bb;fill-opacity:1;fill-rule:nonzero;stroke:none"
       id="path50"
       inkscape:connector-curvature="0" /><path
       d="m 1054.56,1278.41 c -0.98,-13.45 -23.27,-22.8 -49.78,-20.88 -26.538,1.91 -47.268,14.37 -46.303,27.83 0.976,13.45 23.293,22.79 49.813,20.88 26.52,-1.93 47.25,-14.36 46.27,-27.83"
       style="fill:#f8a1a1;fill-opacity:1;fill-rule:nonzero;stroke:none"
       id="path52"
       inkscape:connector-curvature="0" /><path
       d="m 1539.56,1278.41 c -0.98,-13.45 -23.27,-22.8 -49.78,-20.88 -26.54,1.91 -47.27,14.37 -46.3,27.83 0.97,13.45 23.29,22.79 49.81,20.88 26.52,-1.93 47.25,-14.36 46.27,-27.83"
       style="fill:#f8a1a1;fill-opacity:1;fill-rule:nonzero;stroke:none"
       id="path54"
       inkscape:connector-curvature="0" /><path
       d="m 1153.74,1418.31 c 0,0.01 -0.02,0.1 -0.02,0.1 -2.57,47.61 -99.78,76.88 -128.53,-2.5 24.37,20.63 72.5,45 128.55,2.4"
       style="fill:#dceaf5;fill-opacity:1;fill-rule:nonzero;stroke:none"
       id="path56"
       inkscape:connector-curvature="0" /><path
       d="m 1610.81,1322.16 c 0,0 -45,-28.75 -46.25,-47.5 -1.25,-18.75 -3.75,-107.5 -3.75,-107.5 0,0 43.75,35 61.25,72.5 17.5,37.5 23.75,88.75 -11.25,82.5"
       style="fill:#e2a27f;fill-opacity:1;fill-rule:nonzero;stroke:none"
       id="path58"
       inkscape:connector-curvature="0" /><path
       d="m 895.813,1315.91 c 0,0 45,-28.75 46.25,-47.5 1.25,-18.75 3.75,-107.5 3.75,-107.5 0,0 -43.75,35 -61.25,72.5 -17.5,37.5 -23.75,88.75 11.25,82.5"
       style="fill:#e2a27f;fill-opacity:1;fill-rule:nonzero;stroke:none"
       id="path60"
       inkscape:connector-curvature="0" /><path
       d="m 1186.23,827.172 69.16,-7.5 61.94,8.488 2.23,-20.16 c 0,0 -53.75,-49.578 -130.83,-59.16 l -15,21.66 c 0,0 14.17,37.5 12.5,56.672"
       style="fill:#e2a27f;fill-opacity:1;fill-rule:nonzero;stroke:none"
       id="path62"
       inkscape:connector-curvature="0" /><path
       d="m 1249.56,1045.7 c 31.02,0 59.89,-7.35 84.54,-19.87 15.92,37.88 26.12,71.48 26.12,71.48 l -10.78,-2.35 c -20.86,-9.23 -52.9,-19.03 -95,-19.03 -41.68,0 -73.47,9.62 -94.33,18.77 l -13.47,2.61 c 0,0 9.63,-31.73 24.77,-68.26 23.19,10.59 49.81,16.65 78.15,16.65"
       style="fill:#d44357;fill-opacity:1;fill-rule:nonzero;stroke:none"
       id="path64"
       inkscape:connector-curvature="0" /><path
       d="m 1124.56,1904.66 c 0,0 35.01,-36.66 135,-46.66 56.42,-5.64 14.78,-15.03 -8.33,-18.34 -29.16,-4.16 -151.68,-1.66 -183.34,28.34 l 56.67,36.66"
       style="fill:#d5b185;fill-opacity:1;fill-rule:nonzero;stroke:none"
       id="path66"
       inkscape:connector-curvature="0" /><path
       d="m 1377.78,1111.01 c 0,0 -43.63,-35.08 -123.34,-35.08 -79.61,0 -123.24,35.08 -123.24,35.08"
       style="fill:none;stroke:#231f20;stroke-width:13;stroke-linecap:round;stroke-linejoin:round;stroke-miterlimit:10;stroke-dasharray:none;stroke-opacity:1"
       id="path68"
       inkscape:connector-curvature="0" /><path
       d="m 1171.2,1485.88 c 5.79,3.32 -9.19,36.86 -42.06,62.32 -16.12,12.62 -37.13,22.41 -57.27,24.41 -20.2,2.32 -37.21,-3.31 -44.94,-6.86 -16.16,-6.84 -31.492,-19.73 -39.391,-31.99 -8.074,-12.29 -9.601,-23.12 -2.019,-27.76 7.734,-4.77 15.65,0.94 24.48,8.63 8.76,7.8 19.17,17.34 29.83,21.84 5.24,2.34 15.65,6.16 29.34,5.32 13.64,-0.61 30.22,-6.5 44.97,-15.43 30.01,-17.67 51.16,-44.51 57.06,-40.48"
       style="fill:#845333;fill-opacity:1;fill-rule:nonzero;stroke:none"
       id="path70"
       inkscape:connector-curvature="0" /><path
       d="m 1324.89,1485.88 c 5.9,-4.03 27.05,22.8 57.06,40.48 14.76,8.92 31.33,14.82 44.97,15.43 13.7,0.83 24.11,-2.99 29.33,-5.33 10.66,-4.49 21.08,-14.03 29.83,-21.83 8.84,-7.7 16.76,-13.4 24.5,-8.63 7.56,4.64 6.04,15.47 -2.04,27.75 -7.9,12.27 -23.22,25.15 -39.38,31.99 -7.73,3.56 -24.74,9.19 -44.93,6.87 -20.15,-2 -41.15,-11.79 -57.28,-24.41 -32.87,-25.46 -47.85,-59.01 -42.06,-62.32"
       style="fill:#845333;fill-opacity:1;fill-rule:nonzero;stroke:none"
       id="path72"
       inkscape:connector-curvature="0" /><path
       d="m 936.238,1343.83 c 0,0 -31.718,31.63 -68.125,19.78 -17.703,-5.78 -40.957,-28.7 -34.136,-68.86 6.836,-40.17 54.468,-148.42 120.878,-175.09"
       style="fill:none;stroke:#231f20;stroke-width:16;stroke-linecap:round;stroke-linejoin:round;stroke-miterlimit:10;stroke-dasharray:none;stroke-opacity:1"
       id="path74"
       inkscape:connector-curvature="0" /><path
       d="m 873.066,1325.5 c 0,0 51.028,-5 69.637,-66.67"
       style="fill:none;stroke:#231f20;stroke-width:14;stroke-linecap:round;stroke-linejoin:round;stroke-miterlimit:10;stroke-dasharray:none;stroke-opacity:1"
       id="path76"
       inkscape:connector-curvature="0" /><path
       d="m 1317.33,828.16 c 20.79,10.192 55.2,45.981 55.2,45.981 0,0 148.7,127.189 169.88,192.189 19.35,59.36 36.1,401.07 27.52,448.12 -12.73,70.01 -15.8,109.35 -58.26,141.63 -36.41,27.68 -25.47,78.14 -25.47,78.14 -214.97,-69.56 -384.64,-16.27 -384.64,-16.27 58.26,9.76 94.67,42.32 94.67,42.32 -109.24,-1.62 -168.33,-37.27 -199.753,-66.75 -20.188,-18.93 -45.247,-85.52 -60.098,-179.07 -7.5,-47.23 9.246,-388.43 27.527,-448.12 23.992,-78.33 170.224,-192.189 170.224,-192.189 0,0 34.61,-36.45 55.23,-45.981 24.65,-11.379 107.17,-10.191 127.97,0 z"
       style="fill:none;stroke:#231f20;stroke-width:16;stroke-linecap:round;stroke-linejoin:round;stroke-miterlimit:10;stroke-dasharray:none;stroke-opacity:1"
       id="path78"
       inkscape:connector-curvature="0" /><path
       d="m 1570.4,1343 c 0,0 31.41,32.46 67.81,20.61 17.73,-5.78 40.96,-28.7 34.12,-68.86 -6.83,-40.17 -43.63,-158.42 -118.14,-175.09"
       style="fill:none;stroke:#231f20;stroke-width:16;stroke-linecap:round;stroke-linejoin:round;stroke-miterlimit:10;stroke-dasharray:none;stroke-opacity:1"
       id="path80"
       inkscape:connector-curvature="0" /><path
       d="m 1629.99,1327.2 c 0,0 -46.87,-0.4 -63.26,-53.2"
       style="fill:none;stroke:#231f20;stroke-width:14;stroke-linecap:round;stroke-linejoin:round;stroke-miterlimit:10;stroke-dasharray:none;stroke-opacity:1"
       id="path82"
       inkscape:connector-curvature="0" /><path
       d="m 1155.81,1418.41 c -10,54.38 -106.17,80.98 -132.21,-5.78"
       style="fill:none;stroke:#231f20;stroke-width:16;stroke-linecap:round;stroke-linejoin:round;stroke-miterlimit:10;stroke-dasharray:none;stroke-opacity:1"
       id="path84"
       inkscape:connector-curvature="0" /><path
       d="m 1332.98,1418.41 c 10,54.38 106.17,80.98 132.21,-5.78"
       style="fill:none;stroke:#231f20;stroke-width:16;stroke-linecap:round;stroke-linejoin:round;stroke-miterlimit:10;stroke-dasharray:none;stroke-opacity:1"
       id="path86"
       inkscape:connector-curvature="0" /><path
       d="m 1195.73,1445.68 c 0,0 22.48,-31.92 21.47,-134.14"
       style="fill:none;stroke:#231f20;stroke-width:16;stroke-linecap:round;stroke-linejoin:round;stroke-miterlimit:10;stroke-dasharray:none;stroke-opacity:1"
       id="path88"
       inkscape:connector-curvature="0" /><path
       d="m 1227.87,1323.36 c 0,0 -51.5,-76.03 -53.31,-89.71 -1.8,-13.69 28.34,-65.32 46.3,-83.99"
       style="fill:none;stroke:#231f20;stroke-width:16;stroke-linecap:round;stroke-linejoin:round;stroke-miterlimit:10;stroke-dasharray:none;stroke-opacity:1"
       id="path90"
       inkscape:connector-curvature="0" /><path
       d="m 1146.64,1097.31 c 0,0 53.49,-176.47 106.78,-176.47 53.24,0 106.8,176.47 106.8,176.47"
       style="fill:none;stroke:#231f20;stroke-width:13;stroke-linecap:round;stroke-linejoin:round;stroke-miterlimit:10;stroke-dasharray:none;stroke-opacity:1"
       id="path92"
       inkscape:connector-curvature="0" /><path
       d="m 885.32,1366.53 c 0,0 -43.574,273.51 3.711,379.6 42.153,94.47 114.179,105.53 134.929,127.73 50.82,54.35 108.66,86.27 201.51,96.05 92.87,9.78 224.29,-17.91 266.33,-47.21 42.06,-29.31 52.58,-52.82 57.82,-88.19 0,0 41.18,-12.12 82.38,-88.38 23.21,-43.07 45.69,-80.67 -1.61,-376.47"
       style="fill:none;stroke:#231f20;stroke-width:16;stroke-linecap:round;stroke-linejoin:round;stroke-miterlimit:10;stroke-dasharray:none;stroke-opacity:1"
       id="path94"
       inkscape:connector-curvature="0" /><path
       d="m 1170.81,767.172 c 0,0 15.68,26.668 13.75,60"
       style="fill:none;stroke:#231f20;stroke-width:16;stroke-linecap:round;stroke-linejoin:round;stroke-miterlimit:10;stroke-dasharray:none;stroke-opacity:1"
       id="path96"
       inkscape:connector-curvature="0" /><path
       d="m 1333.31,767.172 c 0,0 -15.68,26.668 -13.75,60"
       style="fill:none;stroke:#231f20;stroke-width:16;stroke-linecap:round;stroke-linejoin:round;stroke-miterlimit:10;stroke-dasharray:none;stroke-opacity:1"
       id="path98"
       inkscape:connector-curvature="0" /><path
       d="M 1287.06,655.922 1269.83,585.539 1335.83,8"
       style="fill:none;stroke:#231f20;stroke-width:12;stroke-linecap:round;stroke-linejoin:round;stroke-miterlimit:10;stroke-dasharray:none;stroke-opacity:1"
       id="path100"
       inkscape:connector-curvature="0" /><path
       d="M 1217.69,654.672 1239.11,586.371 1168.39,8"
       style="fill:none;stroke:#231f20;stroke-width:12;stroke-linecap:round;stroke-linejoin:round;stroke-miterlimit:10;stroke-dasharray:none;stroke-opacity:1"
       id="path102"
       inkscape:connector-curvature="0" /><path
       d="M 1327.69,786.539 C 1386.85,759.871 1608.72,674.672 1686.21,617.441 1789.79,540.949 1729.56,8 1729.56,8"
       style="fill:none;stroke:#231f20;stroke-width:16;stroke-linecap:round;stroke-linejoin:round;stroke-miterlimit:10;stroke-dasharray:none;stroke-opacity:1"
       id="path104"
       inkscape:connector-curvature="0" /><path
       d="m 1350.81,775.289 c 14.38,-13.117 19.38,-33.117 23.18,-65.75 2.47,-21.09 -3.17,-79.66 -9.01,-145.711 L 1252.47,699.879 1139.96,563.828 c -5.84,66.051 -10.99,124.563 -9.01,145.711 2.99,32 10.49,47.633 21.74,63.25"
       style="fill:none;stroke:#231f20;stroke-width:14;stroke-linecap:round;stroke-linejoin:round;stroke-miterlimit:10;stroke-dasharray:none;stroke-opacity:1"
       id="path106"
       inkscape:connector-curvature="0" /><path
       d="m 1342.06,771.539 c 0,0 -58.78,-66.25 -90.79,-71.66 -32.51,0 -85.46,72.91 -85.46,72.91"
       style="fill:none;stroke:#231f20;stroke-width:12;stroke-linecap:round;stroke-linejoin:round;stroke-miterlimit:10;stroke-dasharray:none;stroke-opacity:1"
       id="path108"
       inkscape:connector-curvature="0" /><path
       d="m 654.199,294.68 c -32.265,35.3 -131.484,336.789 -141.308,361.66 0,0 -14.161,15.832 -30.828,10.832"
       style="fill:none;stroke:#231f20;stroke-width:16;stroke-linecap:round;stroke-linejoin:round;stroke-miterlimit:10;stroke-dasharray:none;stroke-opacity:1"
       id="path110"
       inkscape:connector-curvature="0" /><path
       d="m 882.891,326.328 c 0,0 -168.078,-155.726 -261.719,-211.129 C 567.246,83.2891 534.883,93.7383 499.563,163 468.684,223.551 387.48,505.301 361.223,559.672 c -4.993,10.828 1.675,37.488 15.007,46.656"
       style="fill:none;stroke:#231f20;stroke-width:16;stroke-linecap:round;stroke-linejoin:round;stroke-miterlimit:10;stroke-dasharray:none;stroke-opacity:1"
       id="path112"
       inkscape:connector-curvature="0" /><path
       d="m 831.223,619.672 c 75.066,60.058 278.757,133.34 342.087,162.5"
       style="fill:none;stroke:#231f20;stroke-width:16;stroke-linecap:round;stroke-linejoin:round;stroke-miterlimit:10;stroke-dasharray:none;stroke-opacity:1"
       id="path114"
       inkscape:connector-curvature="0" /><path
       d="m 862.234,494.828 c 0,0 49.985,-347.238 70.704,-486.828"
       style="fill:none;stroke:#231f20;stroke-width:16;stroke-linecap:round;stroke-linejoin:round;stroke-miterlimit:10;stroke-dasharray:none;stroke-opacity:1"
       id="path116"
       inkscape:connector-curvature="0" /><path
       d="m 1636.88,494.828 c 0,0 -49.98,-347.238 -70.7,-486.828"
       style="fill:none;stroke:#231f20;stroke-width:16;stroke-linecap:round;stroke-linejoin:round;stroke-miterlimit:10;stroke-dasharray:none;stroke-opacity:1"
       id="path118"
       inkscape:connector-curvature="0" /><path
       d="m 367.883,643.262 c 0,0 -61.281,-7.883 -220.246,139.609 0,0 -71.2581,42.328 -126.8831,78.418 -36.6445,23.781 17.3399,28.621 17.3399,28.621 0,0 -20.0586,16.852 -15.8008,30.039 5.9023,18.289 31.5937,11.422 31.5937,11.422 0,0 -1.875,16.41 15.2461,24.25 16.8164,7.719 42.6442,-1.07 42.6442,-1.07 0,0 -0.476,19.738 16.161,24.211 38.949,10.379 127.816,-36.653 201.32,-104.282"
       style="fill:none;stroke:#231f20;stroke-width:16;stroke-linecap:round;stroke-linejoin:round;stroke-miterlimit:10;stroke-dasharray:none;stroke-opacity:1"
       id="path120"
       inkscape:connector-curvature="0" /><path
       d="m 445.793,660.781 c 56.133,65.367 12.781,154.457 0.367,170.879 -12.437,16.43 -38.211,57.988 -48.34,76.309 -10.132,18.32 -28.023,39.691 -38.882,37.492 -10.879,-2.211 -18.274,-15.012 -17.961,-48.57 0.312,-33.539 33.894,-63.039 33.894,-63.039 0,0 -33.125,-75.872 8.359,-112.774"
       style="fill:none;stroke:#231f20;stroke-width:16;stroke-linecap:round;stroke-linejoin:round;stroke-miterlimit:10;stroke-dasharray:none;stroke-opacity:1"
       id="path122"
       inkscape:connector-curvature="0" /><path
       d="m 338.816,870.641 c 0,0 -91.628,3.539 -175.562,-63.602"
       style="fill:none;stroke:#231f20;stroke-width:16;stroke-linecap:round;stroke-linejoin:round;stroke-miterlimit:10;stroke-dasharray:none;stroke-opacity:1"
       id="path124"
       inkscape:connector-curvature="0" /><path
       d="m 36.9805,889.988 c 0,0 63.1485,-10.578 131.7035,-66.277"
       style="fill:none;stroke:#231f20;stroke-width:16;stroke-linecap:round;stroke-linejoin:round;stroke-miterlimit:10;stroke-dasharray:none;stroke-opacity:1"
       id="path126"
       inkscape:connector-curvature="0" /><path
       d="m 397.891,563 c -15,31.672 -26.661,56.672 -42.5,80"
       style="fill:none;stroke:#231f20;stroke-width:16;stroke-linecap:round;stroke-linejoin:round;stroke-miterlimit:10;stroke-dasharray:none;stroke-opacity:1"
       id="path128"
       inkscape:connector-curvature="0" /><path
       d="m 467.063,692.172 c 2.5,-10.844 15,-38.344 25.828,-55.844"
       style="fill:none;stroke:#231f20;stroke-width:16;stroke-linecap:round;stroke-linejoin:round;stroke-miterlimit:10;stroke-dasharray:none;stroke-opacity:1"
       id="path130"
       inkscape:connector-curvature="0" /><path
       d="m 618.723,377.172 c 0,0 168.328,214.859 212.5,242.5"
       style="fill:none;stroke:#231f20;stroke-width:16;stroke-linecap:round;stroke-linejoin:round;stroke-miterlimit:10;stroke-dasharray:none;stroke-opacity:1"
       id="path132"
       inkscape:connector-curvature="0" /><path
       d="m 1681.22,445.078 c 0,0 -25,-91.656 -72.5,-167.906"
       style="fill:none;stroke:#231f20;stroke-width:10;stroke-linecap:round;stroke-linejoin:round;stroke-miterlimit:10;stroke-dasharray:none;stroke-opacity:1"
       id="path134"
       inkscape:connector-curvature="0" /><path
       d="m 56.0664,932.172 c 0,0 82.3636,-11.582 175.0786,-82.902"
       style="fill:none;stroke:#231f20;stroke-width:16;stroke-linecap:round;stroke-linejoin:round;stroke-miterlimit:10;stroke-dasharray:none;stroke-opacity:1"
       id="path136"
       inkscape:connector-curvature="0" /><path
       d="m 113.059,955.16 c 1.796,-0.301 98.621,-17.57 166.004,-90.488"
       style="fill:none;stroke:#231f20;stroke-width:16;stroke-linecap:round;stroke-linejoin:round;stroke-miterlimit:10;stroke-dasharray:none;stroke-opacity:1"
       id="path138"
       inkscape:connector-curvature="0" /><path
       d="m 496.23,642.172 c 0,0 -3.339,-29.172 -43.339,-60 -48.875,-37.684 -70.828,-25.844 -70.828,-25.844"
       style="fill:none;stroke:#231f20;stroke-width:16;stroke-linecap:round;stroke-linejoin:round;stroke-miterlimit:10;stroke-dasharray:none;stroke-opacity:1"
       id="path140"
       inkscape:connector-curvature="0" /><path
       d="m 400.391,463.828 c 0,0 69.16,-9.156 130,68.344"
       style="fill:none;stroke:#231f20;stroke-width:16;stroke-linecap:round;stroke-linejoin:round;stroke-miterlimit:10;stroke-dasharray:none;stroke-opacity:1"
       id="path142"
       inkscape:connector-curvature="0" /><path
       d="m 1239.11,586.371 c 0,0 11.62,6.301 30.72,-0.832"
       style="fill:none;stroke:#231f20;stroke-width:12;stroke-linecap:round;stroke-linejoin:round;stroke-miterlimit:10;stroke-dasharray:none;stroke-opacity:1"
       id="path144"
       inkscape:connector-curvature="0" /></g></svg>